<?xml version="1.0" encoding="UTF-8"?>
<svg id="Layer_1" xmlns="http://www.w3.org/2000/svg" version="1.1" viewBox="0 0 600 170">
  <!-- Generator: Adobe Illustrator 29.3.1, SVG Export Plug-In . SVG Version: 2.1.0 Build 151)  -->
  <defs>
    <style>
      .st0 {
        fill: #286cfb;
      }

      .st1 {
        fill: #fff;
      }
    </style>
  </defs>
  <path class="st1" d="M419,42.5L376,0l-42.8,42.5L290.5,0l-42.7,42.5,42.7,42.5-42.7,42.5,42.7,42.5,42.8-42.5,42.8,42.5,42.8-42.5-42.8-42.5,42.8-42.5h.2,0Z"/>
  <path class="st1" d="M419,42.5L376,0l-42.8,42.5L290.5,0l-42.7,42.5,42.7,42.5-42.7,42.5,42.7,42.5,42.8-42.5,42.8,42.5,42.8-42.5-42.8-42.5,42.8-42.5h.2,0Z"/>
  <path class="st1" d="M165.2,2.5h-62v61.5h62v102.5h62v-102.5L165.2,2.5Z"/>
  <path class="st1" d="M62,105V2.5H0v164h123.8v-61.5h-62s.2,0,.2,0Z"/>
  <polygon class="st0" points="600 54.5 547.8 54.5 547.8 2.5 487.2 2.5 487.2 54.5 434.7 54.5 434.7 114.8 487.2 114.8 487.2 166.5 547.8 166.5 547.8 114.8 600 114.8 600 54.5"/>
</svg>